<svg xmlns="http://www.w3.org/2000/svg" xmlns:xlink="http://www.w3.org/1999/xlink" width="500" zoomAndPan="magnify" viewBox="0 0 375 67.499998" height="90" preserveAspectRatio="xMidYMid meet" version="1.0"><defs><g/><clipPath id="72a8dc6a31"><path d="M 234.339844 3.839844 L 364.816406 3.839844 L 364.816406 63.164062 L 234.339844 63.164062 Z M 234.339844 3.839844 " clip-rule="nonzero"/></clipPath><clipPath id="7fb30057ff"><path d="M 273.316406 3.839844 L 360.964844 3.839844 C 362.183594 3.839844 363.3125 4.496094 363.914062 5.554688 C 364.519531 6.613281 364.507812 7.917969 363.886719 8.964844 L 334.832031 58.039062 C 332.949219 61.214844 329.53125 63.164062 325.839844 63.164062 L 238.191406 63.164062 C 236.96875 63.164062 235.84375 62.507812 235.242188 61.449219 C 234.636719 60.390625 234.648438 59.085938 235.269531 58.039062 L 264.324219 8.964844 C 266.207031 5.789062 269.621094 3.839844 273.316406 3.839844 Z M 273.316406 3.839844 " clip-rule="nonzero"/></clipPath></defs><g fill="#ffffff" fill-opacity="1"><g transform="translate(8.079049, 53.171657)"><g><path d="M 16.6875 -30.625 C 15.78125 -30.65625 15.035156 -30.410156 14.453125 -29.890625 C 13.878906 -29.378906 13.59375 -28.640625 13.59375 -27.671875 L 13.59375 -25.71875 L 19.6875 -25.71875 L 19.6875 -20.03125 L 13.59375 -20.03125 L 13.59375 0 L 5.046875 0 L 5.046875 -20.03125 L 1.40625 -20.03125 L 1.40625 -25.71875 L 5.046875 -25.71875 L 5.046875 -28.21875 C 5.046875 -31.113281 6.007812 -33.378906 7.9375 -35.015625 C 9.875 -36.648438 12.335938 -37.46875 15.328125 -37.46875 C 18.191406 -37.46875 20.707031 -36.832031 22.875 -35.5625 L 19.828125 -29.515625 C 18.828125 -30.253906 17.78125 -30.625 16.6875 -30.625 Z M 16.6875 -30.625 "/></g></g></g><g fill="#ffffff" fill-opacity="1"><g transform="translate(24.512368, 53.171657)"><g><path d="M 15.9375 -27.21875 C 20.332031 -27.21875 23.878906 -25.960938 26.578125 -23.453125 C 29.273438 -20.941406 30.625 -17.617188 30.625 -13.484375 C 30.625 -9.359375 29.273438 -6.03125 26.578125 -3.5 C 23.878906 -0.96875 20.332031 0.296875 15.9375 0.296875 C 11.507812 0.296875 7.945312 -0.96875 5.25 -3.5 C 2.550781 -6.03125 1.203125 -9.359375 1.203125 -13.484375 C 1.203125 -17.617188 2.550781 -20.941406 5.25 -23.453125 C 7.945312 -25.960938 11.507812 -27.21875 15.9375 -27.21875 Z M 15.9375 -20.375 C 14.132812 -20.375 12.675781 -19.722656 11.5625 -18.421875 C 10.445312 -17.128906 9.890625 -15.453125 9.890625 -13.390625 C 9.890625 -11.285156 10.445312 -9.59375 11.5625 -8.3125 C 12.675781 -7.03125 14.132812 -6.390625 15.9375 -6.390625 C 17.695312 -6.390625 19.132812 -7.03125 20.25 -8.3125 C 21.363281 -9.59375 21.921875 -11.285156 21.921875 -13.390625 C 21.921875 -15.453125 21.363281 -17.128906 20.25 -18.421875 C 19.132812 -19.722656 17.695312 -20.375 15.9375 -20.375 Z M 15.9375 -20.375 "/></g></g></g><g fill="#ffffff" fill-opacity="1"><g transform="translate(53.483168, 53.171657)"><g><path d="M 12.09375 -26.921875 L 12.09375 -22.375 C 13.988281 -25.601562 16.898438 -27.253906 20.828125 -27.328125 L 20.828125 -19.53125 C 18.367188 -19.757812 16.351562 -19.347656 14.78125 -18.296875 C 13.21875 -17.253906 12.320312 -15.769531 12.09375 -13.84375 L 12.09375 0 L 3.453125 0 L 3.453125 -26.921875 Z M 12.09375 -26.921875 "/></g></g></g><g fill="#ffffff" fill-opacity="1"><g transform="translate(71.964442, 53.171657)"><g><path d="M 39.40625 -27.328125 C 42.375 -27.328125 44.734375 -26.382812 46.484375 -24.5 C 48.234375 -22.625 49.109375 -20.117188 49.109375 -16.984375 L 49.109375 0 L 40.515625 0 L 40.515625 -14.59375 C 40.515625 -16.1875 40.097656 -17.441406 39.265625 -18.359375 C 38.429688 -19.273438 37.296875 -19.734375 35.859375 -19.734375 C 34.265625 -19.703125 32.992188 -19.09375 32.046875 -17.90625 C 31.097656 -16.726562 30.625 -15.207031 30.625 -13.34375 L 30.625 0 L 21.984375 0 L 21.984375 -14.59375 C 21.984375 -16.1875 21.570312 -17.441406 20.75 -18.359375 C 19.9375 -19.273438 18.816406 -19.734375 17.390625 -19.734375 C 15.753906 -19.703125 14.453125 -19.082031 13.484375 -17.875 C 12.515625 -16.675781 12.03125 -15.164062 12.03125 -13.34375 L 12.03125 0 L 3.453125 0 L 3.453125 -26.921875 L 12.03125 -26.921875 L 12.03125 -22.484375 C 13.863281 -25.640625 16.832031 -27.253906 20.9375 -27.328125 C 23.09375 -27.328125 24.960938 -26.785156 26.546875 -25.703125 C 28.128906 -24.617188 29.253906 -23.128906 29.921875 -21.234375 C 31.679688 -25.222656 34.84375 -27.253906 39.40625 -27.328125 Z M 39.40625 -27.328125 "/></g></g></g><g fill="#ffffff" fill-opacity="1"><g transform="translate(120.915314, 53.171657)"><g><path d="M 15.53125 -27.328125 C 19.226562 -27.328125 22.097656 -26.46875 24.140625 -24.75 C 26.191406 -23.03125 27.238281 -20.640625 27.28125 -17.578125 L 27.28125 0 L 18.828125 0 L 18.828125 -3.09375 C 17.066406 -0.757812 14.320312 0.40625 10.59375 0.40625 C 7.757812 0.40625 5.507812 -0.375 3.84375 -1.9375 C 2.175781 -3.507812 1.34375 -5.546875 1.34375 -8.046875 C 1.34375 -10.609375 2.234375 -12.597656 4.015625 -14.015625 C 5.796875 -15.429688 8.351562 -16.15625 11.6875 -16.1875 L 18.78125 -16.1875 L 18.78125 -16.578125 C 18.78125 -17.910156 18.335938 -18.953125 17.453125 -19.703125 C 16.578125 -20.453125 15.269531 -20.828125 13.53125 -20.828125 C 11.101562 -20.828125 8.425781 -20.078125 5.5 -18.578125 L 3.046875 -24.28125 C 7.410156 -26.3125 11.570312 -27.328125 15.53125 -27.328125 Z M 13.234375 -5.4375 C 14.597656 -5.4375 15.796875 -5.78125 16.828125 -6.46875 C 17.859375 -7.15625 18.507812 -8.046875 18.78125 -9.140625 L 18.78125 -11.546875 L 13.34375 -11.546875 C 10.738281 -11.546875 9.4375 -10.578125 9.4375 -8.640625 C 9.4375 -7.640625 9.769531 -6.851562 10.4375 -6.28125 C 11.101562 -5.71875 12.035156 -5.4375 13.234375 -5.4375 Z M 13.234375 -5.4375 "/></g></g></g><g fill="#ffffff" fill-opacity="1"><g transform="translate(148.037971, 53.171657)"><g><path d="M 12.34375 0 L 3.703125 0 L 3.703125 -37.0625 L 12.34375 -37.0625 Z M 12.34375 0 "/></g></g></g><g fill="#ffffff" fill-opacity="1"><g transform="translate(161.224535, 53.171657)"><g><path d="M 4.515625 -37.9375 C 5.367188 -38.789062 6.460938 -39.21875 7.796875 -39.21875 C 9.128906 -39.21875 10.21875 -38.789062 11.0625 -37.9375 C 11.914062 -37.09375 12.34375 -36.003906 12.34375 -34.671875 C 12.34375 -33.335938 11.914062 -32.238281 11.0625 -31.375 C 10.21875 -30.507812 9.128906 -30.078125 7.796875 -30.078125 C 6.460938 -30.078125 5.367188 -30.507812 4.515625 -31.375 C 3.671875 -32.238281 3.25 -33.335938 3.25 -34.671875 C 3.25 -36.003906 3.671875 -37.09375 4.515625 -37.9375 Z M 12.03125 0 L 3.453125 0 L 3.453125 -26.921875 L 12.03125 -26.921875 Z M 12.03125 0 "/></g></g></g><g fill="#ffffff" fill-opacity="1"><g transform="translate(173.911598, 53.171657)"><g><path d="M 13.09375 -27.328125 C 17.050781 -27.328125 20.742188 -26.3125 24.171875 -24.28125 L 21.234375 -18.6875 C 17.898438 -20.476562 15.066406 -21.375 12.734375 -21.375 C 10.972656 -21.375 10.09375 -20.757812 10.09375 -19.53125 C 10.09375 -18.863281 10.570312 -18.304688 11.53125 -17.859375 C 12.5 -17.410156 13.679688 -17 15.078125 -16.625 C 16.484375 -16.257812 17.875 -15.800781 19.25 -15.25 C 20.632812 -14.707031 21.8125 -13.835938 22.78125 -12.640625 C 23.75 -11.441406 24.234375 -9.976562 24.234375 -8.25 C 24.234375 -5.550781 23.179688 -3.441406 21.078125 -1.921875 C 18.984375 -0.410156 16.253906 0.34375 12.890625 0.34375 C 8.128906 0.34375 4.097656 -0.921875 0.796875 -3.453125 L 3.546875 -8.9375 C 6.710938 -6.707031 9.894531 -5.59375 13.09375 -5.59375 C 15.050781 -5.59375 16.03125 -6.207031 16.03125 -7.4375 C 16.03125 -8.132812 15.554688 -8.71875 14.609375 -9.1875 C 13.660156 -9.65625 12.503906 -10.070312 11.140625 -10.4375 C 9.773438 -10.800781 8.410156 -11.257812 7.046875 -11.8125 C 5.679688 -12.363281 4.519531 -13.222656 3.5625 -14.390625 C 2.613281 -15.554688 2.140625 -17.019531 2.140625 -18.78125 C 2.140625 -21.476562 3.15625 -23.578125 5.1875 -25.078125 C 7.226562 -26.578125 9.863281 -27.328125 13.09375 -27.328125 Z M 13.09375 -27.328125 "/></g></g></g><g fill="#ffffff" fill-opacity="1"><g transform="translate(196.68859, 53.171657)"><g><path d="M 15.234375 -27.21875 C 19.898438 -27.21875 23.40625 -25.785156 25.75 -22.921875 C 28.09375 -20.054688 29.117188 -16.128906 28.828125 -11.140625 L 9.890625 -11.140625 C 10.328125 -9.535156 11.09375 -8.300781 12.1875 -7.4375 C 13.289062 -6.570312 14.640625 -6.140625 16.234375 -6.140625 C 18.703125 -6.140625 20.847656 -7.054688 22.671875 -8.890625 L 27.21875 -4.453125 C 24.320312 -1.285156 20.410156 0.296875 15.484375 0.296875 C 11.117188 0.296875 7.644531 -0.945312 5.0625 -3.4375 C 2.488281 -5.9375 1.203125 -9.253906 1.203125 -13.390625 C 1.203125 -17.546875 2.488281 -20.890625 5.0625 -23.421875 C 7.644531 -25.953125 11.035156 -27.21875 15.234375 -27.21875 Z M 9.734375 -15.78125 L 20.53125 -15.78125 C 20.53125 -17.414062 20.054688 -18.734375 19.109375 -19.734375 C 18.160156 -20.734375 16.898438 -21.234375 15.328125 -21.234375 C 13.867188 -21.234375 12.640625 -20.738281 11.640625 -19.75 C 10.640625 -18.769531 10.003906 -17.445312 9.734375 -15.78125 Z M 9.734375 -15.78125 "/></g></g></g><g fill="#ffffff" fill-opacity="1"><g transform="translate(223.91115, 53.171657)"><g><path d="M 12.09375 -26.921875 L 12.09375 -22.375 C 13.988281 -25.601562 16.898438 -27.253906 20.828125 -27.328125 L 20.828125 -19.53125 C 18.367188 -19.757812 16.351562 -19.347656 14.78125 -18.296875 C 13.21875 -17.253906 12.320312 -15.769531 12.09375 -13.84375 L 12.09375 0 L 3.453125 0 L 3.453125 -26.921875 Z M 12.09375 -26.921875 "/></g></g></g><g clip-path="url(#72a8dc6a31)"><g clip-path="url(#7fb30057ff)"><path fill="#ffffff" d="M 232.234375 3.839844 L 366.921875 3.839844 L 366.921875 63.164062 L 232.234375 63.164062 Z M 232.234375 3.839844 " fill-opacity="1" fill-rule="nonzero"/></g></g><g fill="#000000" fill-opacity="1"><g transform="translate(241.822667, 53.171657)"><g><path d="M 3.046875 -6.78125 C 3.816406 -7.550781 4.816406 -7.9375 6.046875 -7.9375 C 7.273438 -7.9375 8.28125 -7.550781 9.0625 -6.78125 C 9.84375 -6.019531 10.234375 -5.023438 10.234375 -3.796875 C 10.234375 -2.566406 9.84375 -1.554688 9.0625 -0.765625 C 8.28125 0.015625 7.273438 0.40625 6.046875 0.40625 C 4.816406 0.40625 3.816406 0.015625 3.046875 -0.765625 C 2.273438 -1.554688 1.890625 -2.566406 1.890625 -3.796875 C 1.890625 -5.023438 2.273438 -6.019531 3.046875 -6.78125 Z M 3.046875 -6.78125 "/></g></g></g><g fill="#000000" fill-opacity="1"><g transform="translate(251.11311, 53.171657)"><g><path d="M 21.078125 -27.328125 C 24.046875 -27.328125 26.425781 -26.382812 28.21875 -24.5 C 30.019531 -22.625 30.921875 -20.117188 30.921875 -16.984375 L 30.921875 0 L 22.328125 0 L 22.328125 -14.59375 C 22.328125 -16.15625 21.898438 -17.394531 21.046875 -18.3125 C 20.203125 -19.226562 19.046875 -19.6875 17.578125 -19.6875 C 16.046875 -19.6875 14.789062 -19.1875 13.8125 -18.1875 C 12.832031 -17.1875 12.257812 -15.867188 12.09375 -14.234375 L 12.09375 0 L 3.453125 0 L 3.453125 -26.921875 L 12.09375 -26.921875 L 12.09375 -22.53125 C 13.988281 -25.65625 16.984375 -27.253906 21.078125 -27.328125 Z M 21.078125 -27.328125 "/></g></g></g><g fill="#000000" fill-opacity="1"><g transform="translate(281.882122, 53.171657)"><g><path d="M 15.234375 -27.21875 C 19.898438 -27.21875 23.40625 -25.785156 25.75 -22.921875 C 28.09375 -20.054688 29.117188 -16.128906 28.828125 -11.140625 L 9.890625 -11.140625 C 10.328125 -9.535156 11.09375 -8.300781 12.1875 -7.4375 C 13.289062 -6.570312 14.640625 -6.140625 16.234375 -6.140625 C 18.703125 -6.140625 20.847656 -7.054688 22.671875 -8.890625 L 27.21875 -4.453125 C 24.320312 -1.285156 20.410156 0.296875 15.484375 0.296875 C 11.117188 0.296875 7.644531 -0.945312 5.0625 -3.4375 C 2.488281 -5.9375 1.203125 -9.253906 1.203125 -13.390625 C 1.203125 -17.546875 2.488281 -20.890625 5.0625 -23.421875 C 7.644531 -25.953125 11.035156 -27.21875 15.234375 -27.21875 Z M 9.734375 -15.78125 L 20.53125 -15.78125 C 20.53125 -17.414062 20.054688 -18.734375 19.109375 -19.734375 C 18.160156 -20.734375 16.898438 -21.234375 15.328125 -21.234375 C 13.867188 -21.234375 12.640625 -20.738281 11.640625 -19.75 C 10.640625 -18.769531 10.003906 -17.445312 9.734375 -15.78125 Z M 9.734375 -15.78125 "/></g></g></g><g fill="#000000" fill-opacity="1"><g transform="translate(309.104675, 53.171657)"><g><path d="M 19.125 -7.4375 L 20.828125 -1.453125 C 18.734375 -0.210938 16.335938 0.40625 13.640625 0.40625 C 10.972656 0.40625 8.816406 -0.332031 7.171875 -1.8125 C 5.523438 -3.300781 4.703125 -5.410156 4.703125 -8.140625 L 4.703125 -20.03125 L 0.953125 -20.03125 L 0.953125 -25.671875 L 4.703125 -25.671875 L 4.703125 -33.171875 L 13.28125 -33.171875 L 13.28125 -25.71875 L 20.328125 -25.71875 L 20.328125 -20.03125 L 13.28125 -20.03125 L 13.28125 -9.484375 C 13.28125 -8.453125 13.488281 -7.695312 13.90625 -7.21875 C 14.320312 -6.738281 14.945312 -6.515625 15.78125 -6.546875 C 16.582031 -6.546875 17.695312 -6.84375 19.125 -7.4375 Z M 19.125 -7.4375 "/></g></g></g><script xmlns="" public-path="moz-extension://2e686771-7e03-49c9-a1d6-1756f625b508/"/></svg>